<svg width="600" height="433" viewBox="0 0 600 433" fill="none" xmlns="http://www.w3.org/2000/svg">
<g clip-path="url(#clip0_2000_12663)">
<path d="M206.663 340.272C156.117 308.537 70.3274 333.81 33.5439 304.72C-11.2349 269.306 -12.8662 188.061 38.8512 158.58C58.8167 147.22 81.7002 145.404 98.9316 127.881C136.956 89.2016 134.038 54.4086 158.667 26.8364C171.878 12.004 194.325 4.04732 213.946 0.850878C241.333 -3.58735 268.145 10.2333 289.443 24.2378C319.035 43.6695 326.203 53.7187 356.714 72.2995C372.682 82.0268 392.648 89.2245 410.5 80.555C424.285 73.8632 432.257 58.7549 443.102 48.5446C447.434 44.4773 452.04 40.7123 456.887 37.2765C507.639 1.42577 591.867 27.0434 599.495 94.0307C606.778 158.029 533.326 208.206 546.651 265.558C550.006 280.022 565.307 297.154 576.933 305.226C590.488 314.631 602.206 328.728 595.864 345.239C589.822 360.807 571.993 365.797 557.725 365.43C535.462 364.855 511.132 347.309 486.732 326.175C462.332 305.042 411.901 298.005 382.837 348.849C362.642 384.194 257.14 371.983 206.663 340.272Z" fill="#C3E9FB"/>
<path d="M532.085 351.218C545.408 351.218 556.209 340.407 556.209 327.072C556.209 313.737 545.408 302.926 532.085 302.926C518.762 302.926 507.961 313.737 507.961 327.072C507.961 340.407 518.762 351.218 532.085 351.218Z" fill="#EEF9FE"/>
<path d="M143.619 174.425C163.946 174.425 180.425 157.931 180.425 137.585C180.425 117.239 163.946 100.745 143.619 100.745C123.291 100.745 106.812 117.239 106.812 137.585C106.812 157.931 123.291 174.425 143.619 174.425Z" fill="#EEF9FE"/>
<path d="M262.033 115.808C272.629 115.808 281.218 107.211 281.218 96.6062C281.218 86.0014 272.629 77.4045 262.033 77.4045C251.438 77.4045 242.849 86.0014 242.849 96.6062C242.849 107.211 251.438 115.808 262.033 115.808Z" fill="#EEF9FE"/>
<path d="M234.555 106.127C233.362 106.12 232.171 106.02 230.994 105.828V105.115C232.141 105.298 233.301 105.39 234.463 105.391V106.127H234.555ZM238.392 105.782L238.254 105.069C239.45 104.888 240.632 104.627 241.792 104.287L242.022 104.977C240.834 105.336 239.62 105.605 238.392 105.782ZM227.364 104.977C226.186 104.585 225.041 104.101 223.94 103.528L224.285 102.884C225.348 103.434 226.455 103.895 227.593 104.264L227.364 104.977ZM245.376 103.413L245.032 102.769C246.097 102.207 247.112 101.553 248.064 100.815L248.524 101.412C247.524 102.154 246.472 102.822 245.376 103.413ZM220.793 101.573C219.803 100.835 218.874 100.02 218.013 99.1358L218.518 98.6299C219.364 99.4627 220.27 100.231 221.229 100.93L220.793 101.573ZM251.281 98.9289L250.752 98.423C251.595 97.553 252.363 96.6146 253.05 95.6175L253.647 96.0314C252.943 97.0635 252.151 98.033 251.281 98.9289ZM215.646 96.2843C214.926 95.268 214.295 94.1908 213.762 93.0649L214.428 92.743C214.939 93.8304 215.546 94.8694 216.244 95.8474L215.646 96.2843ZM255.439 92.7889L254.773 92.4669C255.295 91.3885 255.718 90.2648 256.037 89.1095L256.749 89.3165C256.401 90.5055 255.963 91.6664 255.439 92.7889ZM212.407 89.5924C212.064 88.4019 211.81 87.1874 211.649 85.9591H212.361C212.523 87.1421 212.776 88.3107 213.119 89.4545L212.407 89.5924ZM257.484 85.6601H256.749C256.848 84.7897 256.902 83.9147 256.91 83.0386C256.91 82.7167 256.91 82.3717 256.91 82.0498H257.645C257.645 82.3947 257.645 82.7166 257.645 83.0616C257.636 83.9376 257.582 84.8126 257.484 85.6832V85.6601ZM212.2 82.2568H211.465C211.512 81.0218 211.65 79.792 211.878 78.5774L212.59 78.7154C212.358 79.89 212.227 81.0825 212.2 82.2797V82.2568ZM256.427 78.4164C256.182 77.2417 255.844 76.0884 255.416 74.967L256.106 74.7141C256.544 75.8731 256.889 77.0649 257.14 78.2784L256.427 78.4164ZM213.578 75.2199L212.889 74.967C213.311 73.8043 213.834 72.6808 214.451 71.6096L215.072 71.9545C214.494 73.0126 213.995 74.1116 213.578 75.243V75.2199ZM255.348 74.806C254.912 73.682 254.382 72.5972 253.762 71.5636L254.406 71.1956C255.032 72.2649 255.577 73.3795 256.037 74.5301L255.348 74.806ZM217.094 68.988L216.519 68.5282C217.297 67.5582 218.15 66.6509 219.069 65.8146L219.552 66.3665C218.668 67.1856 217.846 68.0695 217.094 69.0111V68.988ZM251.694 68.6201C250.931 67.7023 250.093 66.8486 249.19 66.0676L249.65 65.5157C250.591 66.3272 251.466 67.2114 252.269 68.1602L251.694 68.6201ZM222.401 64.1819L222.01 63.561C223.048 62.8888 224.139 62.3042 225.273 61.8133L225.572 62.4802C224.472 62.9724 223.412 63.549 222.401 64.2049V64.1819ZM246.272 63.929C245.251 63.3031 244.184 62.7572 243.079 62.2962L243.354 61.6294C244.502 62.0962 245.608 62.6577 246.663 63.308L246.272 63.929ZM228.972 61.3074L228.788 60.5945C229.988 60.289 231.209 60.0738 232.441 59.9506V60.6865C231.27 60.813 230.11 61.0282 228.972 61.3304V61.3074ZM239.655 61.1924C238.494 60.9118 237.31 60.7348 236.117 60.6635V59.9276C237.354 60.021 238.583 60.2055 239.793 60.4796L239.655 61.1924Z" fill="#8C8EC6"/>
<path d="M483.148 345.745V345.009C484.365 345.009 485.583 345.009 486.778 344.871V345.584C485.606 345.745 484.365 345.745 483.148 345.745ZM479.472 345.745C478.254 345.745 477.013 345.745 475.796 345.561V344.825C476.99 344.825 478.208 344.986 479.426 345.009L479.472 345.745ZM490.477 345.285V344.572C491.671 344.434 492.889 344.273 494.084 344.089L494.199 344.802C492.912 344.917 491.671 345.101 490.477 345.216V345.285ZM472.097 345.285C470.902 345.124 469.661 344.963 468.466 344.756L468.581 344.02C469.776 344.227 470.879 344.411 472.188 344.549L472.097 345.285ZM497.668 344.227L497.53 343.514C498.702 343.261 499.828 342.985 501.068 342.686L501.252 343.399C500.126 343.445 498.909 343.813 497.714 344.066L497.668 344.227ZM464.859 344.043C463.665 343.79 462.562 343.491 461.298 343.169L461.482 342.456C462.654 342.778 463.78 343.077 465.02 343.33L464.859 344.043ZM504.79 342.387L504.561 341.698C505.732 341.353 506.858 340.962 508.007 340.548L508.26 341.238C507.157 341.491 506.008 341.882 504.836 342.226L504.79 342.387ZM457.76 341.951C456.588 341.583 455.462 341.169 454.268 340.755L454.52 340.065C455.669 340.479 456.818 340.893 457.967 341.261L457.76 341.951ZM511.66 339.651L511.384 338.961C512.487 338.501 513.682 338.018 514.693 337.489L515.014 338.156C513.981 338.846 512.901 339.283 511.729 339.743L511.66 339.651ZM450.867 339.375C449.742 338.892 448.57 338.363 447.513 337.834L447.835 337.167C448.914 337.719 450.132 338.225 451.143 338.708L450.867 339.375ZM518.277 336.615L517.932 335.949C519.012 335.397 520.069 334.799 521.103 334.178L521.471 334.799C520.506 335.42 519.426 336.041 518.346 336.546L518.277 336.615ZM444.25 336.133C443.171 335.558 442.114 334.937 441.057 334.293L441.447 333.672C442.481 334.316 443.538 334.914 444.595 335.512L444.25 336.133ZM524.664 332.867L524.25 332.246C525.261 331.579 526.272 330.889 527.237 330.177L527.674 330.774C526.686 331.487 525.675 332.177 524.664 332.867ZM438.047 332.315C437.036 331.625 436.025 330.912 435.06 330.177L435.497 329.579C436.462 330.315 437.45 331.027 438.461 331.694L438.047 332.315ZM530.592 328.521L530.132 327.969C531.074 327.21 531.993 326.405 532.912 325.669L533.395 326.198C532.476 326.98 531.534 327.762 530.592 328.521ZM432.165 327.9C431.223 327.118 430.281 326.313 429.385 325.485L429.868 324.956C430.764 325.761 431.683 326.566 432.625 327.256L432.165 327.9ZM536.083 323.669L535.577 323.14C536.45 322.289 537.3 321.415 538.128 320.541L538.656 321.047C537.829 321.944 536.956 322.749 536.083 323.669ZM426.72 322.956C425.847 322.105 424.997 321.208 424.17 320.311L424.721 319.828C425.526 320.702 426.376 321.599 427.226 322.45L426.72 322.956ZM541.114 318.357L540.563 317.874C541.344 316.954 542.125 316.011 542.861 315.045L543.435 315.505C542.769 316.425 541.918 317.368 541.114 318.311V318.357ZM421.758 317.598C420.976 316.647 420.211 315.681 419.46 314.7L420.034 314.263C420.77 315.229 421.528 316.195 422.332 317.115L421.758 317.598ZM545.617 312.539L545.02 312.125C545.709 311.136 546.399 310.101 547.042 309.089L547.662 309.48C547.019 310.469 546.33 311.504 545.617 312.493V312.539ZM417.346 311.734C416.657 310.722 415.968 309.687 415.348 308.652L415.968 308.261C416.588 309.296 417.255 310.331 417.944 311.32L417.346 311.734ZM549.661 306.284L549.018 305.916C549.615 304.881 550.19 303.8 550.741 302.719L551.407 303.041C550.764 304.145 550.167 305.226 549.661 306.284ZM413.578 305.433C412.981 304.375 412.407 303.271 411.878 302.19L412.522 301.868C413.05 302.949 413.624 304.03 414.222 305.088L413.578 305.433ZM552.901 299.753L552.234 299.454C552.74 298.35 553.222 297.154 553.659 296.096L554.348 296.372C553.889 297.492 553.406 298.618 552.901 299.753ZM410.224 298.879C409.742 297.775 409.282 296.579 408.846 295.499L409.535 295.223C409.948 296.357 410.408 297.484 410.913 298.603L410.224 298.879ZM555.612 292.9L554.923 292.67C555.313 291.52 555.681 290.37 556.025 289.198L556.715 289.405C556.37 290.554 556.002 291.727 555.612 292.854V292.9ZM407.605 292.026C407.237 290.876 406.87 289.727 406.548 288.508L407.214 288.255C407.536 289.405 407.881 290.554 408.271 291.727L407.605 292.026ZM557.657 285.84L556.944 285.679C557.22 284.506 557.473 283.38 557.703 282.115L558.415 282.253C558.185 283.426 557.932 284.644 557.657 285.817V285.84ZM405.652 284.943C405.399 283.748 405.147 282.644 404.94 281.333L405.652 281.218C405.859 282.414 406.112 283.518 406.364 284.782L405.652 284.943ZM559.012 278.619H558.3C558.461 277.424 558.599 276.205 558.713 274.986H559.449C559.334 276.159 559.196 277.401 559.012 278.596V278.619ZM404.365 277.7C404.228 276.504 404.09 275.262 403.998 274.043H404.733C404.733 275.239 404.94 276.343 405.101 277.654L404.365 277.7ZM559.701 271.307H558.966C558.966 270.088 558.966 268.869 558.966 267.65H559.701C559.793 268.823 559.747 270.065 559.701 271.284V271.307ZM403.791 270.387C403.791 269.467 403.791 268.547 403.791 267.627C403.791 267.328 403.791 267.007 403.791 266.708H404.526C404.526 267.03 404.526 267.328 404.526 267.627C404.526 268.547 404.526 269.467 404.526 270.364L403.791 270.387ZM559.035 265.788C559.035 264.569 559.035 263.35 558.874 262.154H559.587C559.587 263.35 559.747 264.592 559.77 265.811L559.035 265.788ZM404.595 262.959H403.86C403.86 261.74 404.044 260.522 404.159 259.303H404.894C404.756 260.66 404.664 261.832 404.595 262.959ZM558.53 258.36C558.392 257.164 558.231 255.945 558.024 254.75L558.736 254.635C558.943 255.853 559.127 257.072 559.265 258.268L558.53 258.36ZM405.353 255.623L404.641 255.509C404.825 254.313 405.032 253.209 405.284 251.898L405.997 252.036C405.744 253.416 405.537 254.612 405.353 255.808V255.623ZM557.358 251.461C557.105 250.265 556.807 249.162 556.508 247.92L557.22 247.736C557.519 248.909 557.817 250.035 558.07 251.3L557.358 251.461ZM406.801 248.771L406.089 248.587C406.387 247.414 406.709 246.287 407.076 245.045L407.766 245.252C407.398 246.325 407.076 247.468 406.801 248.679V248.771ZM555.497 244.424C555.129 243.259 554.739 242.11 554.325 240.975L555.014 240.722C555.428 241.872 555.819 243.022 556.186 244.194L555.497 244.424ZM408.914 241.78L408.225 241.55C408.616 240.4 409.075 239.25 409.535 238.101L410.201 238.376C409.742 239.411 409.305 240.561 408.914 241.688V241.78ZM552.993 237.595C552.51 236.491 552.005 235.295 551.499 234.283L552.142 233.961C552.671 235.065 553.176 236.261 553.659 237.319L552.993 237.595ZM411.672 235.042L411.005 234.72C411.511 233.616 412.062 232.421 412.636 231.432L413.28 231.777C412.728 232.765 412.177 233.846 411.672 234.95V235.042ZM549.845 231.041C549.271 229.983 548.673 228.925 548.053 227.89L548.673 227.499C549.294 228.557 549.914 229.615 550.488 230.696L549.845 231.041ZM415.049 228.465L414.429 228.097C415.049 227.039 415.692 226.005 416.359 224.97L416.979 225.361C416.305 226.419 415.662 227.453 415.049 228.465ZM546.008 224.694C545.342 223.682 544.63 222.693 543.917 221.727L544.515 221.29C545.227 222.256 545.939 223.268 546.605 224.28L546.008 224.694ZM418.955 222.394L418.357 221.957C419.07 220.969 419.805 219.98 420.655 219.037L421.229 219.474C420.471 220.44 419.736 221.405 419.047 222.394H418.955ZM541.689 218.853C540.931 217.933 540.149 216.99 539.391 216.093L539.92 215.61C540.747 216.507 541.528 217.45 542.217 218.393L541.689 218.853ZM423.481 216.691L422.929 216.208C423.734 215.289 424.561 214.369 425.411 213.495L425.939 214.001C425.181 214.875 424.354 215.771 423.573 216.691H423.481ZM536.841 213.426L534.245 210.896L534.727 210.367C535.623 211.195 536.519 212.046 537.369 212.92L536.841 213.426ZM428.512 211.448L428.007 210.896L430.741 208.436L431.224 208.988C430.396 209.792 429.477 210.597 428.604 211.448H428.512ZM531.511 208.482C530.592 207.7 529.65 206.941 528.685 206.182L529.121 205.607C530.086 206.366 531.051 207.125 531.993 207.907L531.511 208.482ZM434.027 206.688L433.567 206.113C434.532 205.354 435.52 204.618 436.508 203.814L436.944 204.411C436.048 205.216 435.06 205.929 434.118 206.688H434.027ZM525.744 204.043C524.756 203.354 523.722 202.687 522.711 202.043L523.102 201.422C524.113 202.066 525.146 202.756 526.157 203.446L525.744 204.043ZM439.954 202.48L439.564 201.859C440.574 201.192 441.631 200.548 442.688 199.95L443.056 200.571C442.091 201.169 441.057 201.813 440.046 202.48H439.954ZM519.564 200.18C518.53 199.582 517.427 199.007 516.347 198.455L516.692 197.789C517.771 198.34 518.874 198.938 519.931 199.536L519.564 200.18ZM446.272 198.823L445.928 198.179C447.008 197.628 448.11 197.076 449.213 196.57L449.535 197.237C448.57 197.743 447.398 198.271 446.272 198.823ZM513.084 196.892C511.982 196.409 510.787 195.926 509.73 195.489L509.983 194.799C511.132 195.259 512.28 195.719 513.383 196.225L513.084 196.892ZM452.866 195.811L452.591 195.121C453.716 194.661 454.888 194.224 456.037 193.833L456.267 194.523C455.187 194.914 454.061 195.351 452.935 195.811H452.866ZM506.284 194.247C505.158 193.856 503.986 193.488 502.814 193.166L503.021 192.453L506.537 193.557L506.284 194.247ZM459.736 193.419L459.529 192.706C460.701 192.362 461.827 192.04 463.067 191.741L463.251 192.453C462.102 192.76 460.954 193.082 459.805 193.419H459.736ZM499.299 192.27C498.128 191.994 497.002 191.741 495.738 191.511L495.876 190.798L499.46 191.557L499.299 192.27ZM466.95 191.672L466.812 190.959C468.007 190.729 469.225 190.522 470.442 190.338V191.074C469.248 191.235 468.053 191.442 466.95 191.672ZM492.223 190.936C491.028 190.775 489.81 190.637 488.616 190.545V189.809L492.269 190.223L492.223 190.936ZM474.072 190.614V189.901C475.29 189.786 476.531 189.671 477.749 189.625V190.361C476.485 190.407 475.267 190.499 474.049 190.614H474.072ZM484.986 190.315C483.929 190.315 482.849 190.315 481.792 190.315H481.356V189.579H481.792C482.849 189.579 483.952 189.579 485.009 189.579L484.986 190.315Z" fill="#8C8EC6"/>
<path d="M140.563 250.817C139.345 250.817 138.105 250.817 136.887 250.656V249.92C138.082 249.92 139.184 250.058 140.517 250.081L140.563 250.817ZM144.262 250.702V249.966C145.48 249.966 146.697 249.76 147.892 249.599V250.334C146.697 250.495 145.48 250.61 144.262 250.702ZM133.234 250.242C132.016 250.058 130.798 249.828 129.627 249.576L129.787 248.863C130.959 249.116 132.085 249.346 133.349 249.53L133.234 250.242ZM151.614 249.691L151.453 248.978C152.625 248.725 153.751 248.449 154.968 248.104L155.175 248.817C153.935 249.162 152.74 249.438 151.545 249.691H151.614ZM126.134 248.633C124.963 248.288 123.837 247.874 122.642 247.46L122.895 246.77C124.021 247.184 125.192 247.598 126.341 247.943L126.134 248.633ZM158.667 247.667L158.415 246.977C159.563 246.563 160.712 246.103 161.769 245.597L162.091 246.264C160.896 246.862 159.747 247.23 158.598 247.667H158.667ZM119.242 246.011C118.139 245.482 116.944 244.93 115.956 244.332L116.324 243.689C117.381 244.286 118.461 244.838 119.563 245.344L119.242 246.011ZM165.376 244.631L165.032 243.988C166.088 243.413 167.145 242.792 168.156 242.148L168.547 242.769C167.444 243.413 166.387 244.057 165.307 244.562L165.376 244.631ZM112.809 242.332C111.798 241.665 110.787 240.952 109.799 240.193L110.258 239.618C111.2 240.354 112.211 241.067 113.222 241.711L112.809 242.332ZM171.58 240.584L171.143 239.986C172.108 239.281 173.05 238.514 173.969 237.687L174.451 238.262C173.464 239.158 172.476 239.963 171.511 240.676L171.58 240.584ZM106.95 237.871C106.054 237.043 105.158 236.192 104.285 235.318L104.813 234.812C105.663 235.663 106.536 236.514 107.455 237.319L106.95 237.871ZM177.14 235.778L176.634 235.249C177.484 234.398 178.311 233.501 179.115 232.604L179.667 233.087C178.794 234.099 177.944 234.996 177.071 235.87L177.14 235.778ZM101.643 232.696C100.862 231.777 100.08 230.788 99.3452 229.799L99.9196 229.385C100.632 230.351 101.39 231.294 102.217 232.214L101.643 232.696ZM181.827 230.397L181.252 229.96C181.964 228.994 182.677 228.005 183.32 226.993L183.94 227.384C183.366 228.327 182.654 229.339 181.918 230.305L181.827 230.397ZM97.3004 226.855C96.6418 225.828 96.0215 224.771 95.4394 223.682L96.0827 223.337C96.6571 224.395 97.2774 225.453 97.8978 226.465L97.3004 226.855ZM185.824 224.211L185.181 223.866C185.755 222.808 186.307 221.727 186.812 220.624L187.478 220.923C187.065 221.934 186.513 223.061 185.916 224.119L185.824 224.211ZM93.923 220.371C93.4176 219.244 92.9581 218.071 92.5445 216.944L93.2338 216.714C93.6473 217.841 94.1068 219.014 94.5893 220.072L93.923 220.371ZM188.949 217.427L188.26 217.174C188.673 216.047 189.064 214.875 189.408 213.725L190.121 213.932C189.822 215.105 189.408 216.277 188.949 217.427ZM91.3728 213.357C91.0511 212.184 90.7524 211.057 90.4997 209.769L91.212 209.632C91.4647 210.804 91.7404 211.931 92.085 213.15L91.3728 213.357ZM191.017 210.367L190.304 210.206C190.557 209.034 190.787 207.907 190.948 206.642H191.683C191.545 207.953 191.246 209.172 191.063 210.367H191.017ZM89.9253 206.136C89.7645 204.94 89.6496 203.699 89.5807 202.48H90.2929C90.2929 203.676 90.4768 204.894 90.6376 206.09L89.9253 206.136ZM192.119 203.17H191.384C191.384 201.951 191.499 200.732 191.499 199.536H192.234C192.234 200.617 192.188 201.859 192.119 203.17ZM90.1551 198.8H89.4199C89.4199 197.559 89.4199 196.317 89.5807 195.121H90.3159C90.3159 196.271 90.1551 197.582 90.1551 198.8ZM191.361 196.961C191.361 195.742 191.2 194.523 191.063 193.327H191.775C191.936 194.523 192.028 195.765 192.096 196.984L191.361 196.961ZM90.8444 191.672L90.1091 191.557C90.2929 190.361 90.5457 189.257 90.7984 187.946L91.5106 188.107C91.2579 189.165 91.0282 190.361 90.8444 191.672ZM190.603 189.855C190.373 188.682 190.098 187.555 189.776 186.337L190.488 186.13C190.81 187.325 191.086 188.521 191.315 189.717L190.603 189.855ZM92.4526 184.497L91.7634 184.267C92.131 183.094 92.5215 181.967 92.981 180.795L93.6473 181.048C93.2108 182.174 92.8202 183.324 92.4526 184.497ZM188.719 182.749C188.306 181.599 187.869 180.45 187.387 179.369L188.076 179.07C188.558 180.197 188.995 181.369 189.408 182.496L188.719 182.749ZM95.0948 177.713L94.4285 177.391C94.9569 176.287 95.5313 175.092 96.1287 174.126L96.772 174.494C96.1746 175.574 95.6002 176.632 95.0948 177.713ZM185.847 176.08C185.296 175 184.698 173.942 184.055 172.93L184.675 172.539C185.319 173.574 185.939 174.655 186.491 175.735L185.847 176.08ZM98.5411 171.481L97.9437 171.067C98.61 170.055 99.3222 169.044 100.08 168.078L100.655 168.538C100.034 169.389 99.3452 170.377 98.6559 171.389L98.5411 171.481ZM181.941 169.986C181.229 168.998 180.494 168.032 179.644 167.112L180.218 166.652C180.999 167.595 181.758 168.561 182.516 169.573L181.941 169.986ZM102.975 165.732L102.424 165.249C103.251 164.329 104.101 163.433 104.974 162.582L105.503 163.111C104.744 163.869 103.94 164.743 103.09 165.64L102.975 165.732ZM177.461 164.306C176.634 163.433 175.761 162.582 174.865 161.777L175.348 161.248C176.267 162.053 177.14 162.927 177.99 163.801L177.461 164.306ZM108.352 160.581L107.869 160.029C108.819 159.247 109.784 158.481 110.764 157.73L111.2 158.327C110.19 159.063 109.225 159.822 108.306 160.581H108.352ZM172.085 159.454C171.143 158.695 170.132 157.983 169.144 157.316L169.558 156.695C170.569 157.385 171.58 158.12 172.522 158.879L172.085 159.454ZM114.21 156.327L113.82 155.706C114.877 155.062 115.933 154.441 117.013 153.866L117.358 154.51C116.255 155.085 115.198 155.683 114.164 156.327H114.21ZM166.065 155.384C165.009 154.786 163.929 154.211 162.849 153.705L163.171 153.038C164.273 153.567 165.468 154.142 166.433 154.763L166.065 155.384ZM120.62 152.946L120.322 152.279C121.447 151.774 122.619 151.337 123.745 150.923L123.998 151.613C122.826 152.004 121.677 152.578 120.574 152.946H120.62ZM159.518 152.234C158.392 151.797 157.22 151.383 156.094 151.038L156.324 150.325C157.473 150.693 158.621 151.107 159.793 151.567L159.518 152.234ZM127.467 150.532L127.26 149.819C128.432 149.497 129.558 149.198 130.844 148.968L130.982 149.681C129.765 149.911 128.57 150.279 127.421 150.532H127.467ZM152.602 150.072C151.43 149.796 150.304 149.543 149.041 149.359V148.646C150.236 148.83 151.453 149.083 152.648 149.359L152.602 150.072ZM134.566 149.106V148.37C135.784 148.232 137.025 148.117 138.242 148.048V148.784C136.933 148.853 135.715 148.968 134.52 149.106H134.566ZM145.434 148.922C144.239 148.807 143.136 148.738 141.804 148.715V147.979C143.021 147.979 144.262 147.979 145.48 148.186L145.434 148.922Z" fill="#8C8EC6"/>
<path d="M352.993 101.642C350.552 101.642 348.167 100.918 346.138 99.5612C344.109 98.2043 342.528 96.2757 341.594 94.0192C340.66 91.7628 340.416 89.2799 340.892 86.8844C341.368 84.489 342.543 82.2886 344.268 80.5616C345.994 78.8345 348.192 77.6585 350.586 77.182C352.979 76.7055 355.46 76.95 357.714 77.8847C359.968 78.8193 361.895 80.4021 363.251 82.4329C364.607 84.4636 365.33 86.8512 365.33 89.2936C365.324 92.5668 364.022 95.7042 361.71 98.0187C359.397 100.333 356.263 101.636 352.993 101.642ZM352.993 77.4966C350.662 77.5011 348.386 78.1969 346.451 79.4959C344.515 80.7949 343.008 82.6389 342.12 84.7949C341.231 86.9509 341.001 89.3222 341.458 91.6091C341.916 93.896 343.04 95.9958 344.689 97.6434C346.339 99.2909 348.439 100.412 350.725 100.865C353.01 101.319 355.379 101.084 357.531 100.19C359.684 99.2967 361.523 97.7847 362.817 95.8452C364.111 93.9057 364.802 91.6258 364.802 89.2936C364.802 87.7424 364.496 86.2065 363.903 84.7737C363.309 83.341 362.439 82.0394 361.342 80.9437C360.245 79.8479 358.943 78.9794 357.51 78.3879C356.077 77.7964 354.542 77.4936 352.993 77.4966Z" fill="#8C8EC6"/>
<path d="M149.845 137.585H473.016C475.24 137.585 477.373 138.469 478.945 140.043C480.518 141.618 481.402 143.753 481.402 145.979V368.557C481.402 370.783 480.518 372.918 478.945 374.492C477.373 376.066 475.24 376.95 473.016 376.95H149.868C147.644 376.95 145.511 376.066 143.938 374.492C142.365 372.918 141.482 370.783 141.482 368.557V145.956C141.482 143.736 142.363 141.607 143.931 140.037C145.5 138.467 147.627 137.585 149.845 137.585Z" fill="white"/>
<path d="M473.016 377.318H149.891C147.573 377.312 145.353 376.386 143.716 374.744C142.079 373.102 141.16 370.877 141.16 368.557V145.979C141.16 143.659 142.079 141.434 143.716 139.791C145.353 138.149 147.573 137.223 149.891 137.217H473.016C475.335 137.223 477.558 138.148 479.198 139.79C480.839 141.432 481.763 143.657 481.769 145.979V368.557C481.763 370.879 480.839 373.104 479.198 374.746C477.558 376.387 475.335 377.312 473.016 377.318ZM149.891 137.953C147.768 137.959 145.735 138.807 144.236 140.312C142.737 141.816 141.895 143.854 141.896 145.979V368.557C141.892 369.61 142.097 370.653 142.498 371.626C142.898 372.6 143.486 373.485 144.229 374.23C144.972 374.976 145.854 375.568 146.826 375.971C147.797 376.375 148.839 376.583 149.891 376.583H473.016C475.142 376.583 477.182 375.737 478.685 374.232C480.189 372.727 481.034 370.685 481.034 368.557V145.979C481.028 143.852 480.181 141.814 478.679 140.31C477.176 138.807 475.14 137.959 473.016 137.953H149.891Z" fill="#5187C6"/>
<path d="M481.402 145.979V159.178H141.367V145.979C141.367 143.756 142.247 141.625 143.815 140.052C145.383 138.478 147.51 137.591 149.73 137.585H473.016C475.238 137.591 477.367 138.477 478.939 140.05C480.51 141.623 481.395 143.754 481.402 145.979Z" fill="#C3E9FB"/>
<path d="M481.769 159.477H141.114V145.91C141.114 143.59 142.033 141.365 143.67 139.722C145.307 138.08 147.527 137.154 149.845 137.148H473.016C475.335 137.154 477.558 138.079 479.199 139.721C480.839 141.363 481.763 143.588 481.769 145.91V159.477ZM141.85 158.741H481.034V145.91C481.028 143.783 480.181 141.745 478.679 140.241C477.176 138.738 475.14 137.89 473.016 137.884H149.891C147.768 137.89 145.735 138.738 144.236 140.243C142.737 141.747 141.895 143.785 141.896 145.91L141.85 158.741Z" fill="#5187C6"/>
<path d="M160.345 152.279C162.502 152.279 164.25 150.529 164.25 148.37C164.25 146.211 162.502 144.461 160.345 144.461C158.188 144.461 156.439 146.211 156.439 148.37C156.439 150.529 158.188 152.279 160.345 152.279Z" fill="#2A4DA0"/>
<path d="M175.164 144.484C174.391 144.484 173.636 144.713 172.994 145.143C172.351 145.572 171.851 146.183 171.555 146.897C171.26 147.612 171.182 148.398 171.333 149.156C171.484 149.914 171.856 150.611 172.402 151.157C172.948 151.704 173.644 152.077 174.402 152.227C175.159 152.378 175.945 152.301 176.658 152.005C177.372 151.709 177.982 151.208 178.411 150.565C178.84 149.922 179.07 149.166 179.07 148.393C179.07 147.356 178.658 146.362 177.926 145.629C177.193 144.896 176.2 144.484 175.164 144.484Z" fill="#2A4DA0"/>
<path d="M190.098 152.302C189.324 152.307 188.567 152.082 187.921 151.655C187.276 151.228 186.772 150.619 186.473 149.905C186.174 149.191 186.093 148.405 186.241 147.645C186.389 146.885 186.759 146.186 187.305 145.637C187.85 145.088 188.546 144.713 189.304 144.561C190.062 144.408 190.849 144.484 191.564 144.779C192.279 145.074 192.89 145.576 193.321 146.219C193.751 146.862 193.98 147.619 193.98 148.393C193.98 149.426 193.572 150.417 192.845 151.149C192.117 151.882 191.13 152.296 190.098 152.302ZM190.098 145.22C189.471 145.22 188.858 145.406 188.336 145.755C187.815 146.103 187.408 146.599 187.168 147.179C186.928 147.759 186.866 148.397 186.988 149.012C187.11 149.628 187.412 150.193 187.856 150.637C188.299 151.081 188.864 151.383 189.479 151.506C190.094 151.628 190.732 151.565 191.311 151.325C191.89 151.085 192.385 150.678 192.734 150.156C193.082 149.634 193.268 149.021 193.268 148.393C193.268 147.551 192.934 146.744 192.34 146.149C191.745 145.554 190.938 145.22 190.098 145.22Z" fill="#5187C6"/>
<path d="M286.065 152.739H213.578C212.427 152.739 211.322 152.282 210.508 151.466C209.694 150.651 209.236 149.546 209.236 148.393C209.236 147.241 209.694 146.135 210.508 145.32C211.322 144.505 212.427 144.047 213.578 144.047H286.065C287.217 144.047 288.322 144.505 289.136 145.32C289.95 146.135 290.408 147.241 290.408 148.393C290.408 149.546 289.95 150.651 289.136 151.466C288.322 152.282 287.217 152.739 286.065 152.739ZM213.578 144.783C212.622 144.783 211.704 145.163 211.028 145.84C210.351 146.517 209.971 147.436 209.971 148.393C209.971 149.351 210.351 150.269 211.028 150.946C211.704 151.623 212.622 152.004 213.578 152.004H286.065C287.022 152.004 287.94 151.623 288.616 150.946C289.293 150.269 289.673 149.351 289.673 148.393C289.673 147.436 289.293 146.517 288.616 145.84C287.94 145.163 287.022 144.783 286.065 144.783H213.578Z" fill="#5187C6"/>
<path d="M364.802 262.798C364.801 272.47 361.997 281.934 356.731 290.043C351.464 298.152 343.96 304.558 335.129 308.484C326.297 312.41 316.518 313.688 306.976 312.162C297.433 310.637 288.538 306.374 281.368 299.89C274.198 293.405 269.061 284.979 266.58 275.631C264.099 266.284 264.38 256.416 267.389 247.225C270.398 238.035 276.007 229.915 283.534 223.85C291.062 217.785 300.185 214.037 309.799 213.058L311.453 229.454C304.611 230.149 298.149 232.935 292.945 237.435C287.742 241.935 284.049 247.93 282.369 254.605C280.69 261.28 281.105 268.31 283.558 274.74C286.011 281.171 290.384 286.689 296.08 290.544C301.777 294.4 308.522 296.405 315.398 296.289C322.274 296.172 328.948 293.938 334.511 289.892C340.074 285.845 344.256 280.182 346.49 273.672C348.724 267.162 348.901 260.122 346.996 253.508L362.849 248.909C364.143 253.425 364.801 258.1 364.802 262.798Z" fill="#5187C6"/>
<path d="M314.854 303.156C337.123 303.156 355.175 285.087 355.175 262.798C355.175 240.509 337.123 222.44 314.854 222.44C292.584 222.44 274.532 240.509 274.532 262.798C274.532 285.087 292.584 303.156 314.854 303.156Z" fill="white"/>
<path opacity="0.5" d="M314.854 303.156C337.123 303.156 355.175 285.087 355.175 262.798C355.175 240.509 337.123 222.44 314.854 222.44C292.584 222.44 274.532 240.509 274.532 262.798C274.532 285.087 292.584 303.156 314.854 303.156Z" fill="#9EC9E7"/>
<path d="M314.854 291.382C330.626 291.382 343.412 278.585 343.412 262.798C343.412 247.012 330.626 234.214 314.854 234.214C299.081 234.214 286.295 247.012 286.295 262.798C286.295 278.585 299.081 291.382 314.854 291.382Z" fill="white"/>
<path d="M522.504 272.043H384.561V356.461H522.504V272.043Z" fill="white"/>
<path d="M522.872 356.852H384.239V271.767H522.918L522.872 356.852ZM385.02 356.116H522.091V272.434H384.928L385.02 356.116Z" fill="#5187C6"/>
<path d="M409.879 329.602H401.93V344.204H409.879V329.602Z" fill="#9EC9E7"/>
<path d="M425.755 322.933H417.806V344.204H425.755V322.933Z" fill="#9EC9E7"/>
<path d="M441.631 328.383H433.682V344.181H441.631V328.383Z" fill="#9EC9E7"/>
<path d="M457.507 317.253H449.558V344.181H457.507V317.253Z" fill="#9EC9E7"/>
<path d="M473.383 310.147H465.434V344.204H473.383V310.147Z" fill="#9EC9E7"/>
<path d="M489.282 299.983H481.333V344.204H489.282V299.983Z" fill="#9EC9E7"/>
<path d="M505.158 284.323H497.209V344.181H505.158V284.323Z" fill="#9EC9E7"/>
<path d="M408.248 291.428H401.93V298.58H408.248V291.428Z" fill="#9EC9E7"/>
<path d="M460.724 294.74H417.99V296.579H460.724V294.74Z" fill="#9EC9E7"/>
<path d="M416.404 221.382L407.651 197.237C402.751 199.017 398.51 202.25 395.493 206.505C392.476 210.759 390.826 215.833 390.763 221.049C390.7 226.266 392.227 231.378 395.141 235.704C398.055 240.03 402.216 243.365 407.072 245.263C411.927 247.162 417.245 247.534 422.317 246.331C427.388 245.127 431.973 242.405 435.46 238.527C438.947 234.649 441.171 229.8 441.834 224.625C442.497 219.45 441.569 214.196 439.173 209.563L416.404 221.382Z" fill="#C3E9FB"/>
<path d="M442.619 200.41C439.746 194.89 434.971 190.6 429.18 188.333C423.388 186.067 416.972 185.978 411.12 188.084L419.851 212.23L442.619 200.41Z" fill="#5187C6"/>
<path d="M415.279 116.291H354.578V174.126H415.279V116.291Z" fill="#F3F4F5"/>
<path d="M401.356 127.49H361.792V130.341H401.356V127.49Z" fill="#C3E9FB"/>
<path d="M405.859 131.123C407.077 131.123 408.064 130.135 408.064 128.916C408.064 127.696 407.077 126.708 405.859 126.708C404.64 126.708 403.653 127.696 403.653 128.916C403.653 130.135 404.64 131.123 405.859 131.123Z" fill="#45AAE0"/>
<path d="M405.652 129.858L405.009 129.008L405.376 128.709L405.698 129.1L406.755 127.996L407.099 128.318L405.652 129.858Z" fill="white"/>
<path d="M405.859 139.333C407.077 139.333 408.064 138.344 408.064 137.125C408.064 135.906 407.077 134.917 405.859 134.917C404.64 134.917 403.653 135.906 403.653 137.125C403.653 138.344 404.64 139.333 405.859 139.333Z" fill="#45AAE0"/>
<path d="M405.652 138.045L405.009 137.194L405.376 136.918L405.698 137.309L406.755 136.205L407.099 136.527L405.652 138.045Z" fill="white"/>
<path d="M401.356 135.699H361.792V138.551H401.356V135.699Z" fill="#C3E9FB"/>
<path d="M405.269 143.15C404.801 143.296 404.391 143.587 404.101 143.982C403.81 144.378 403.653 144.856 403.653 145.346C403.653 145.837 403.81 146.315 404.101 146.71C404.391 147.105 404.801 147.397 405.269 147.542C405.613 147.649 405.977 147.674 406.332 147.614C406.687 147.554 407.023 147.412 407.313 147.198C407.603 146.984 407.839 146.705 408.001 146.384C408.163 146.062 408.248 145.707 408.248 145.346C408.248 144.986 408.001 144.309 408.001 144.309C408.001 144.309 407.603 143.708 407.313 143.495C407.023 143.281 406.687 143.138 406.332 143.079C405.977 143.019 405.613 143.043 405.269 143.15ZM406.728 145.864L406.337 146.255L405.809 145.749L405.303 146.255L404.89 145.864L405.418 145.335L404.89 144.829L405.303 144.415L405.809 144.944L406.337 144.415L406.728 144.829L406.222 145.335L406.728 145.864Z" fill="#ED1C24"/>
<path d="M401.356 143.909H361.792V146.76H401.356V143.909Z" fill="#C3E9FB"/>
<path d="M405.95 159.477C405.496 159.477 405.052 159.612 404.674 159.865C404.296 160.118 404.002 160.477 403.828 160.897C403.654 161.317 403.608 161.779 403.697 162.226C403.786 162.672 404.005 163.081 404.326 163.403C404.647 163.725 405.057 163.944 405.502 164.032C405.948 164.121 406.41 164.076 406.83 163.901C407.25 163.727 407.608 163.433 407.861 163.054C408.113 162.676 408.248 162.232 408.248 161.777C408.248 161.167 408.006 160.582 407.575 160.151C407.144 159.72 406.56 159.477 405.95 159.477ZM406.869 162.214L406.479 162.605L405.95 162.076L405.445 162.605L405.031 162.214L405.56 161.685L405.031 161.156L405.445 160.765L405.95 161.294L406.479 160.765L406.869 161.156L406.364 161.685L406.869 162.214Z" fill="#ED1C24"/>
<path d="M401.356 160.328H361.792V163.18H401.356V160.328Z" fill="#C3E9FB"/>
<path d="M405.882 155.752C407.1 155.752 408.087 154.764 408.087 153.544C408.087 152.325 407.1 151.337 405.882 151.337C404.664 151.337 403.676 152.325 403.676 153.544C403.676 154.764 404.664 155.752 405.882 155.752Z" fill="#45AAE0"/>
<path d="M405.652 154.464L405.009 153.613L405.376 153.314L405.698 153.728L406.755 152.601L407.099 152.946L405.652 154.464Z" fill="white"/>
<path d="M401.356 152.119H361.792V154.97H401.356V152.119Z" fill="#C3E9FB"/>
<path d="M245.997 172.999H193.222V262.292H245.997V172.999Z" fill="#F3F4F5"/>
<path d="M235.887 185.923H201.264V217.634H235.887V185.923Z" fill="white"/>
<path d="M201.535 185.572L201.038 186.115L235.661 217.836L236.158 217.294L201.535 185.572Z" fill="#F3F4F5"/>
<path d="M235.631 185.659L201.013 217.387L201.51 217.929L236.127 186.202L235.631 185.659Z" fill="#F3F4F5"/>
<path d="M184.492 212.575H63.7565V292.187H184.492V212.575Z" fill="white"/>
<path d="M80.4434 218.7C80.0856 217.923 79.5904 217.336 78.6583 217.773C77.7886 218.182 78.005 218.906 78.3254 219.606C78.7249 220.476 79.0952 221.358 79.5405 222.382C77.4682 222.139 75.7913 222.426 74.3266 223.543C73.6275 224.073 73.228 224.96 73.7024 225.55C74.1768 226.141 75.0964 226.21 75.862 225.603C76.2282 225.312 76.6818 225.077 77.1353 224.939C78.5293 224.523 79.7568 224.879 80.7014 225.931C81.6169 226.95 81.7833 228.148 81.1383 229.362C80.4726 230.617 79.3491 231.195 77.901 231.118C76.0784 231.025 74.8426 229.775 74.7718 227.857C74.7344 226.886 74.4264 226.275 73.4777 226.331C72.529 226.388 72.221 227.323 72.1628 227.905C72.0837 228.698 72.2876 229.674 72.737 230.333C74.3765 232.717 76.17 234.999 77.9925 237.443C79.607 235.399 81.0593 233.514 82.5614 231.665C84.1676 229.694 84.4381 227.594 83.4103 225.295C82.911 224.175 80.5724 218.983 80.4434 218.7ZM83.1066 223.794C83.1066 223.794 82.9027 219.78 82.8361 218.457C82.7404 216.559 80.4393 217.441 80.897 218.603C81.2299 219.436 83.1066 223.794 83.1066 223.794Z" fill="#C1ECFF"/>
<path d="M184.836 292.555H63.4118V212.23H184.836V292.555ZM64.1011 291.842H184.147V212.943H64.1011V291.842Z" fill="#5187C6"/>
<path d="M76.4848 272.963L84.2964 258.314L100.379 273.445L111.109 242.217L131.097 264.178L144.262 258.82L168.156 227.591" fill="white"/>
<path d="M100.54 274.112L84.3883 258.912L76.8065 273.146L76.1631 272.802L84.1815 257.739L100.218 272.802L110.948 241.527L131.189 263.741L144.032 258.521L167.858 227.361L168.432 227.798L144.492 259.119L131.005 264.615L130.821 264.431L111.246 242.93L100.54 274.112Z" fill="#5187C6"/>
<path d="M84.3423 260.292C85.4589 260.292 86.3641 259.386 86.3641 258.268C86.3641 257.15 85.4589 256.244 84.3423 256.244C83.2257 256.244 82.3205 257.15 82.3205 258.268C82.3205 259.386 83.2257 260.292 84.3423 260.292Z" fill="#5187C6"/>
<path d="M100.264 275.101C101.381 275.101 102.286 274.195 102.286 273.077C102.286 271.96 101.381 271.054 100.264 271.054C99.1476 271.054 98.2424 271.96 98.2424 273.077C98.2424 274.195 99.1476 275.101 100.264 275.101Z" fill="#5187C6"/>
<path d="M111.223 244.378C112.34 244.378 113.245 243.472 113.245 242.355C113.245 241.237 112.34 240.331 111.223 240.331C110.107 240.331 109.202 241.237 109.202 242.355C109.202 243.472 110.107 244.378 111.223 244.378Z" fill="#5187C6"/>
<path d="M149.73 225.269H98.5411V226.005H149.73V225.269Z" fill="#5187C6"/>
<path d="M261.114 321.346H150.856V432.877H261.114V321.346Z" fill="#ECF3F7"/>
<g opacity="0.5">
<path opacity="0.5" d="M251.74 407.075H160.23V412.985H251.74V407.075Z" fill="#9EC9E7"/>
<path opacity="0.5" d="M251.74 396.106H160.23V402.016H251.74V396.106Z" fill="#9EC9E7"/>
<path opacity="0.5" d="M251.74 385.137H228.214V391.024H251.74V385.137Z" fill="#9EC9E7"/>
<path opacity="0.5" d="M220.586 385.137H160.368V391.024H220.586V385.137Z" fill="#9EC9E7"/>
<path opacity="0.5" d="M251.74 374.168H160.23V380.078H251.74V374.168Z" fill="#9EC9E7"/>
<path opacity="0.5" d="M251.74 363.199H160.23V369.109H251.74V363.199Z" fill="#9EC9E7"/>
<path opacity="0.5" d="M251.74 352.23H160.23V358.14H251.74V352.23Z" fill="#9EC9E7"/>
<path opacity="0.5" d="M202.757 341.261H160.23V347.171H202.757V341.261Z" fill="#9EC9E7"/>
<path opacity="0.5" d="M251.74 341.261H209.052V347.171H251.74V341.261Z" fill="#9EC9E7"/>
<path opacity="0.5" d="M251.74 330.292H160.23V336.202H251.74V330.292Z" fill="#9EC9E7"/>
<path opacity="0.5" d="M202.872 418.044H160.23V423.954H202.872V418.044Z" fill="#9EC9E7"/>
<path opacity="0.5" d="M209.098 423.931H251.74V418.021H209.098V423.931Z" fill="#9EC9E7"/>
</g>
<path d="M361.493 367.89C368.041 367.89 373.349 362.578 373.349 356.024C373.349 349.471 368.041 344.158 361.493 344.158C354.946 344.158 349.638 349.471 349.638 356.024C349.638 362.578 354.946 367.89 361.493 367.89Z" fill="#45AAE0"/>
<path d="M360.368 361.037L356.806 356.484L358.874 354.874L360.551 357.036L366.226 351.034L368.133 352.828L360.368 361.037Z" fill="white"/>
<path d="M295.876 350.643C295.514 350.18 295.247 349.65 295.09 349.084C294.933 348.517 294.89 347.925 294.963 347.342C295.035 346.758 295.222 346.195 295.513 345.684C295.804 345.173 296.193 344.725 296.657 344.365C296.87 344.206 297.093 344.06 297.323 343.928L296.381 333.741L302.447 331.671L303.55 346.067C303.863 347.054 303.835 348.119 303.468 349.088C303.102 350.057 302.419 350.874 301.531 351.406C300.643 351.938 299.602 352.155 298.575 352.02C297.549 351.886 296.598 351.409 295.876 350.666V350.643Z" fill="#F9B7B8"/>
<path d="M302.378 292.164C302.378 292.164 306.513 283.449 310.212 286.507C313.912 289.566 305.158 315.367 305.158 315.367L303.825 340.387L296.818 339.674L294.842 315.298L302.378 292.164Z" fill="#CCCCCC"/>
<path d="M319.012 432.831H325.698L328.891 406.983H319.012V432.831Z" fill="#F9B7B8"/>
<path d="M305.388 432.877H311.453L314.348 409.444H305.388V432.877Z" fill="#F9B7B8"/>
<path d="M301.941 344.181C301.941 356.116 304.744 378.077 304.744 378.077L303.825 417.285C301.022 420.436 305.204 423.08 305.204 423.08L305.02 428.3L312.349 427.496L314.44 420.804C315.028 420.385 315.509 419.834 315.844 419.195C316.179 418.555 316.359 417.846 316.37 417.124C316.893 419.015 317.732 420.803 318.851 422.413C318.851 422.413 322.091 425.357 328.041 423.172C333.992 420.988 330.775 415.285 330.775 415.285C332.958 412.87 331.327 403.488 331.327 403.488C331.327 403.488 335.095 360.416 337.806 345.124C340.517 329.832 330.775 311.688 330.775 311.688L310.098 316.77L309.271 326.359C306.863 328.645 304.966 331.415 303.703 334.486C302.44 337.557 301.84 340.861 301.941 344.181ZM316.232 415.86C316.078 414.824 315.752 413.821 315.267 412.893L316.14 379.227L318.162 352.391L317.105 414.48C316.867 414.631 316.665 414.833 316.514 415.072C316.363 415.31 316.266 415.579 316.232 415.86Z" fill="#152F3B"/>
<path d="M309.179 285.196C310.833 283.229 313.154 281.941 315.698 281.58C318.242 281.219 320.829 281.811 322.964 283.242L323.423 283.541C328.275 289.037 331.532 295.757 332.843 302.972L334.888 314.148L309.225 319.713L303.228 299.017C302.448 296.379 302.621 293.549 303.718 291.026C304.814 288.503 306.764 286.447 309.225 285.219L309.179 285.196Z" fill="#CCCCCC"/>
<path d="M351.338 353.012C350.051 352.586 348.985 351.667 348.373 350.455C347.762 349.244 347.655 347.84 348.076 346.55C348.171 346.266 348.286 345.989 348.421 345.722L341.022 336.661L345.434 330.821L355.704 343.767C356.722 344.458 357.459 345.49 357.782 346.678C358.106 347.866 357.993 349.13 357.466 350.242C356.938 351.354 356.03 352.24 354.906 352.739C353.782 353.239 352.516 353.319 351.338 352.966V353.012Z" fill="#F9B7B8"/>
<path d="M320.115 293.383C320.115 293.383 318.461 282.46 323.929 283.012C329.397 283.564 337.576 313.596 337.576 313.596L352.326 338.202L345.181 342.02L327.697 320.15L320.115 293.383Z" fill="#CCCCCC"/>
<path d="M330.109 277.401H304.101C303.565 277.401 303.051 277.188 302.671 276.808C302.292 276.429 302.079 275.914 302.079 275.377V264.178C302.079 260.189 303.662 256.364 306.48 253.544C309.298 250.723 313.12 249.139 317.105 249.139C321.09 249.139 324.912 250.723 327.73 253.544C330.548 256.364 332.131 260.189 332.131 264.178V275.377C332.131 275.914 331.918 276.429 331.539 276.808C331.16 277.188 330.645 277.401 330.109 277.401Z" fill="#152F3B"/>
<path d="M320.184 277.125C326.262 277.125 331.189 272.193 331.189 266.11C331.189 260.026 326.262 255.095 320.184 255.095C314.106 255.095 309.179 260.026 309.179 266.11C309.179 272.193 314.106 277.125 320.184 277.125Z" fill="#F9B7B8"/>
<path d="M335.669 265.259H321.884L321.746 262.959L321.034 265.259H318.897L318.621 260.66L317.22 265.259H313.016V265.052C313.016 258.498 317.611 253.163 323.377 253.163H325.33C331.028 253.163 335.669 258.498 335.669 265.052V265.259Z" fill="#152F3B"/>
<path d="M322.025 279.344H321.519L305.023 276.792V259.591C305.023 257.834 305.72 256.15 306.961 254.908C308.202 253.666 309.885 252.968 311.64 252.968H323.127L322.691 253.428C316.442 259.798 321.152 270.146 324.506 275.734C324.74 276.142 324.844 276.612 324.803 277.081C324.762 277.55 324.578 277.995 324.276 278.356C323.992 278.671 323.645 278.922 323.257 279.093C322.869 279.263 322.448 279.349 322.025 279.344Z" fill="#152F3B"/>
</g>
<defs>
<clipPath id="clip0_2000_12663">
<rect width="600" height="432.877" fill="white"/>
</clipPath>
</defs>
</svg>
