<svg width="213" height="61" viewBox="0 0 213 61" fill="none" xmlns="http://www.w3.org/2000/svg">
<path d="M40.6401 12.6847C39.9224 11.1375 38.9293 9.96912 37.06 10.8394C35.3159 11.6532 35.7499 13.0956 36.3924 14.4897C37.1936 16.2221 37.9363 17.9788 38.8292 20.0175C34.6734 19.534 31.3103 20.1061 28.3729 22.3301C26.9709 23.3857 26.1698 25.1504 27.1211 26.3269C28.0724 27.5034 29.9167 27.6403 31.4522 26.4316C32.1865 25.8515 33.0961 25.3841 34.0058 25.1101C36.8013 24.2802 39.2631 24.9893 41.1575 27.0843C42.9934 29.115 43.3272 31.5001 42.0337 33.9175C40.6985 36.4155 38.4453 37.5678 35.5412 37.4147C31.8861 37.2294 29.4076 34.7395 29.2658 30.92C29.1907 28.986 28.5731 27.7693 26.6705 27.8821C24.7678 27.9949 24.1503 29.8563 24.0334 31.0167C23.8749 32.596 24.2838 34.538 25.1851 35.8515C28.473 40.5976 32.0697 45.1424 35.7248 50.0094C38.9627 45.9401 41.8751 42.1851 44.8877 38.5026C48.1089 34.5783 48.6513 30.3962 46.5901 25.8192C45.5887 23.5872 40.8988 13.2487 40.6401 12.6847ZM45.9809 22.8297C45.9809 22.8297 45.572 14.8362 45.4385 12.2012C45.2465 8.42198 40.6317 10.1786 41.5497 12.4913C42.2173 14.1512 45.9809 22.8297 45.9809 22.8297Z" fill="#40C4FF"/>
<path d="M188.36 20.528C188.727 17.1355 187.584 14.3233 185.665 13.7028C183.445 12.9857 180.975 14.4764 179.239 17.8044C176.018 23.9929 174.933 30.6488 175.025 37.5062C175.058 39.8672 172.88 42.2604 170.527 42.2685C168.741 42.2766 167.615 40.8181 168.316 39.3031C168.624 38.6343 169.167 38.0703 169.584 37.4417C173.264 31.9301 176.46 26.2089 176.636 19.4643C176.694 17.1758 176.669 14.4522 173.706 13.727C170.761 13.0098 169.167 15.1452 167.823 17.2886C167.523 17.7641 167.281 18.2717 167.039 18.7794C164.277 24.6376 163.125 30.8503 163.35 37.2081C163.45 39.9075 161.915 40.8261 160.037 41.7528C157.926 42.7923 155.756 43.3724 153.637 41.4224C155.464 40.5199 157.258 39.8511 158.785 38.8116C161.03 37.2806 161.723 34.1782 160.596 32.0912C159.495 30.0606 156.925 29.5288 153.962 30.2862C151.742 30.8503 149.381 30.9309 146.652 31.2774C147.161 29.2548 147.561 27.9333 147.803 26.5795C148.045 25.2097 148.229 23.8156 148.254 22.4297C148.329 18.7874 146.894 16.6923 144.182 16.2894C140.894 15.7979 138.023 17.6915 137.122 21.1001C135.895 25.7173 136.838 29.7544 141.077 32.9373C140.068 34.5973 139.233 36.2733 138.098 37.7399C136.755 39.4804 135.461 41.9623 132.757 41.2532C130.02 40.5441 130.062 37.8124 130.104 35.6287C130.204 30.254 130.621 24.8874 130.738 19.5207C130.754 18.6424 130.396 16.6521 128.109 16.6923C125.823 16.7326 125.631 19.7786 125.447 20.399C123.828 25.7254 122.434 31.1404 120.44 36.3297C119.689 38.2878 117.269 41.2774 116.017 41.1001C113.163 40.7052 113.272 37.4176 113.305 35.0969C113.372 30.0042 113.889 24.9196 113.998 19.8189C114.014 18.8277 113.547 16.8616 111.686 16.8616C109.333 16.8616 108.757 18.9889 108.707 19.7222C108.381 24.3394 108.098 30.5038 107.781 35.2983C106.178 36.3217 104.551 36.4345 102.907 36.4426C102.991 31.7608 100.228 30.2056 97.5245 29.8994C94.7039 29.5852 92.3923 30.6085 90.7066 32.7681C88.8707 35.121 88.3366 37.8044 88.9291 40.6811C89.4799 43.3563 90.9653 45.3305 93.8277 45.943C96.8486 46.5876 99.7443 45.7899 101.054 43.1307C101.722 41.785 102.473 39.5932 102.473 39.5932C102.473 39.5932 104.468 39.8994 106.362 39.3676C107.497 39.0453 108.54 38.4168 108.54 38.4168C108.54 38.4168 109.107 40.399 109.425 41.2693C111.502 46.9019 116.242 47.8285 120.49 43.3966C121.333 42.5183 122.059 41.511 122.685 40.4716C123.594 38.9567 124.371 37.3612 125.339 35.532C125.814 37.6351 126.09 39.3918 126.615 41.0679C128.293 46.4103 132.465 47.8688 136.963 44.3233C139.508 42.3088 141.787 39.706 143.406 36.9502C144.874 34.4522 146.326 33.8801 148.972 35.0082C148.237 38.5699 147.553 42.4135 151.342 44.7584C155.982 47.6351 160.363 45.9349 164.368 43.0985C167.932 47.2081 170.368 47.2161 176.068 43.2274C179.214 46.3297 182.419 46.9986 185.173 45.0646C186.725 43.9687 187.484 42.6472 186.049 40.8181C185.615 40.9712 185.231 41.0356 184.93 41.221C183.503 42.1154 182.001 42.9857 180.508 41.5433C178.83 39.9156 180.474 38.6746 181.317 37.4176C184.805 32.2201 187.676 26.7971 188.36 20.528ZM97.149 41.8575C96.69 42.3007 94.8541 42.1476 94.2533 41.6158C91.95 39.5852 93.2435 34.8793 95.9807 33.8559C95.7137 35.4353 96.181 37.0469 98.3173 38.2959C98.7346 39.5046 97.9084 41.1243 97.149 41.8575ZM142.855 29.4885C139.984 26.8535 140.118 24.3797 140.693 21.9462C140.852 21.2774 141.461 20.0525 142.588 20.254C143.723 20.4554 143.865 21.5594 143.831 22.1718C143.698 24.4119 143.264 26.6279 142.855 29.4885ZM152.977 35.1372C153.536 33.6867 155.464 32.5747 156.808 33.1952C158.151 33.8156 157.142 35.7818 156.115 36.789C155.089 37.7963 152.652 38.8197 152.652 38.8197C152.652 38.8197 152.285 36.9341 152.977 35.1372ZM172.246 17.1517C175.225 17.1839 171.136 28.6263 168.04 33.7995C168.265 27.9736 169.876 17.1194 172.246 17.1517ZM179.69 33.8398C178.964 30.7939 181.534 17.1436 183.904 17.1839C186.274 17.2161 182.811 28.6504 179.69 33.8398ZM79.2739 45.677C83.4464 44.6698 85.8498 42.1637 86.1586 38.7391C86.484 35.1855 84.9569 32.9695 80.776 31.0759C78.5145 30.0525 76.1612 29.1984 73.9414 28.0944C71.7801 27.0227 70.8955 25.2419 71.8468 22.9695C72.673 20.9873 76.3699 20.0203 79.5994 20.6408C82.203 21.1404 82.9958 22.5505 82.8122 25.0324C82.7455 25.8865 83.8887 26.8213 84.4896 27.7157C85.4326 26.9905 86.9096 26.4264 87.2184 25.4998C88.4117 21.9059 86.7344 18.6424 82.904 17.6029C80.3838 16.918 77.5715 16.789 74.9512 17.0066C70.3447 17.3934 67.1653 20.2298 66.5644 23.864C65.9135 27.7318 67.7995 30.5118 72.5311 32.6069C74.7175 33.5739 76.9874 34.3878 79.107 35.4675C81.0598 36.4667 81.8108 38.1347 80.751 40.1573C79.6828 42.204 75.5854 42.9776 71.7133 42.1799C69.0012 41.6239 68.5172 40.0606 68.6674 37.6835C68.7174 36.9421 67.6076 35.5239 66.9483 35.4836C66.0971 35.4272 64.7369 36.225 64.3363 37.0066C62.9928 39.6416 64.3196 43.3724 67.1653 44.6537C69.2933 45.6126 71.7133 45.9832 73.4908 46.4828C75.8608 46.1686 77.6049 46.0799 79.2739 45.677Z" fill="#40C4FF"/>
</svg>
